<svg height="57.5" viewBox="0 0 400 102.55" width="215" xmlns="http://www.w3.org/2000/svg"><path d="m103.35 5.763c-.467.512-.85 1.037-.85 1.167s-.075.237-.167.237c-.091 0-.166.15-.166.333s-.075.333-.167.333-.167.15-.167.334c0 .183-.075.333-.166.333-.092 0-.167.093-.167.207 0 .328-1.179 2.626-1.348 2.626-.084 0-.152.15-.152.334 0 .183-.075.333-.167.333-.091 0-.166.15-.166.333 0 .184-.075.334-.167.334s-.167.15-.167.333-.075.333-.166.333c-.092 0-.167.15-.167.334 0 .183-.075.333-.167.333-.091 0-.166.15-.166.333 0 .184-.075.334-.167.334s-.167.143-.167.319-.056.345-.125.375c-.068.031-.419.634-.779 1.341-.634 1.245-.979 1.621-1.183 1.291-.46-.744-3.913 1.486-3.913 2.527 0 .162-.075.34-.166.397-.092.056-.167.383-.167.726s-.069.695-.153.782-.193.908-.243 1.825c-.124 2.29-.553 5.096-.853 5.581-.08.13-.153.422-.163.649s-.109.444-.22.481-.201.286-.201.553-.075.486-.167.486-.167.225-.167.5-.075.5-.166.5c-.296 0-.175.245.209.425 1.053.493 2.881 1.5 2.93 1.613.03.071.193.129.361.129s.33.056.361.125c.03.068.993.602 2.139 1.186s2.18 1.14 2.298 1.235c1.318 1.059 1.939 1.029 2.532-.123.531-1.033 1.972-2.512 3.753-3.852.825-.621 1.637-1.285 1.803-1.475.167-.191.486-.552.709-.803.222-.252.405-.57.405-.709 0-.138.075-.251.166-.251.092 0 .167-.15.167-.333 0-.184.075-.334.167-.334.091 0 .166-.151.166-.335 0-.185.066-.466.147-.625.273-.541.52-1.478.52-1.973 0-.271.118-.661.262-.867.176-.25.226-.539.154-.871-.081-.368-.042-.521.154-.597.262-.1.381-.898.135-.898-.071 0-.276-.273-.456-.607s-.609-.794-.954-1.022c-.53-.351-.628-.508-.628-1.007 0-.782-.906-1.655-1.796-1.73-.47-.039-.628-.136-.698-.425-.256-1.068-1.987-1.915-2.434-1.192-.08.13-.155.119-.25-.036-.075-.121-.063-.309.028-.418.09-.109 1.143-2.137 2.338-4.506 1.196-2.369 2.243-4.379 2.326-4.466.494-.514.157-2.5-.503-2.966-1.096-.775-1.795-.659-2.828.471m-40.118 3.031c-.468.251-.963.531-1.099.623-.297.199-1.466 1.848-1.466 2.067 0 .085-.057.18-.125.21-.126.056-.232.246-1.736 3.109-.449.855-1.002 1.847-1.228 2.205-.226.359-.411.722-.411.808s-.059.181-.131.212c-.072.03-.413.618-.759 1.305-.346.688-.887 1.7-1.203 2.25s-.621 1.132-.677 1.292-.169.292-.25.292-.145.206-.142.458c.006.529.487 1.249.611.917.043-.115.213-.209.377-.209.165 0 .392-.111.505-.248.114-.136.274-.207.355-.156.082.051.273-.031.423-.181.151-.151.4-.241.554-.201.154.041.419-.029.59-.153.409-.299 1.416-.29 1.854.017.192.134.383.21.425.167.042-.042.383.186.757.506.374.321.794.583.932.583.433 0 .779-.193.779-.435 0-.128.059-.232.132-.232s.272-.338.442-.75c.17-.413.373-.75.451-.75s.141-.146.141-.323c0-.178.075-.37.167-.427s.167-.249.167-.427c0-.177.075-.323.166-.323.092 0 .167-.187.167-.417 0-.229.075-.416.167-.416.091 0 .166-.146.166-.324s.075-.37.167-.426c.092-.057.167-.249.167-.427s.075-.323.166-.323c.092 0 .167-.1.167-.222 0-.258.682-1.646.994-2.021.118-.142.158-.257.089-.257-.068 0-.024-.12.098-.267.121-.147.236-.353.253-.458.051-.297.371-.974.723-1.525.175-.275.324-.669.331-.875.007-.207.087-.375.179-.375.096 0 .166-.528.166-1.25 0-.723-.07-1.25-.166-1.25-.092 0-.167-.1-.167-.221 0-1.14-2.853-1.911-4.268-1.152m-40.649 2.539c-.056.092-.229.169-.385.171-.155.003-.638.368-1.073.812l-.792.808v1.521c0 .903.068 1.522.167 1.522.092 0 .167.187.167.416 0 .23.075.417.166.417.092 0 .167.188.167.417s.075.416.167.416c.091 0 .166.089.166.198 0 .108.143.502.317.875.174.372.445.977.601 1.344.155.367.359.828.452 1.026.093.197.119.442.056.543-.062.101.004.228.147.283s.261.206.261.335.075.383.166.565c.092.182.242.48.334.662.091.182.166.445.166.584 0 .138.075.252.167.252s.167.146.167.323c0 .178.075.37.166.427.092.057.167.286.167.51s.075.407.167.407c.091 0 .166.181.166.402 0 .222.082.431.182.464s.194.264.209.512c.014.248.12.487.234.531.115.044.209.233.209.419s.075.338.166.338c.092 0 .167.114.167.253 0 .138.066.382.147.541s.221.477.311.706c.288.731.576 1.408.728 1.706.081.16.147.441.147.625 0 .185.075.336.167.336s.167.106.167.235.179.597.398 1.041c.384.78.705 1.498 1.219 2.724.134.321.313.714.397.873s.152.404.152.544.087.422.193.627c.414.8.474.963.474 1.277 0 .179.075.372.167.429.091.057.166.274.166.482 0 .209.055.434.123.502.124.123.461 1.461.676 2.683.082.463.232.716.493.831.206.09.375.222.375.292 0 .069.138.127.308.127.769 0 3.359 2.264 3.359 2.937 0 .126.075.229.166.229.092 0 .167.146.167.324s.075.37.167.426c.091.057.166.282.166.5 0 .219.075.444.167.5.092.057.167.399.167.76s.075.657.166.657c.092 0 .167.171.167.38 0 1.478 1.645 1.786 3.344.626.558-.381 1.272-.838 1.586-1.016.313-.178.835-.473 1.158-.657.324-.183.732-.333.907-.333s.365-.075.422-.167c.056-.091.436-.166.843-.166s.74-.075.74-.167.375-.167.833-.167c.459 0 .834.075.834.167s.412.167.916.167.917.075.917.166c0 .092.189.167.419.167.422 0 .964.245 1.372.619.122.112.426.324.676.471.405.239.944.887 1.457 1.751 1.198 2.017 2.175 2.071 2.908.159.123-.321.295-.677.383-.792.105-.137.095-.208-.028-.208-.107 0-.187-.282-.187-.657 0-.361-.075-.703-.167-.76-.091-.056-.166-.366-.166-.688s-.12-.705-.266-.851c-.173-.173-.233-.425-.173-.726.052-.258.015-.487-.084-.52-.174-.058-.425-.978-.592-2.174-.048-.344-.154-.668-.236-.718-.082-.051-.149-.346-.149-.656s-.075-.61-.167-.667c-.092-.056-.167-.398-.167-.76 0-.361-.075-.656-.166-.656-.092 0-.167-.3-.167-.667s-.075-.667-.167-.667c-.091 0-.166-.337-.166-.75 0-.412-.075-.75-.167-.75s-.167-.247-.167-.55c0-.302-.074-.624-.166-.716-.091-.091-.197-.387-.235-.658s-.144-.717-.237-.992c-.396-1.184-.528-1.717-.528-2.127 0-.24-.075-.483-.167-.54s-.167-.357-.167-.667-.082-.614-.182-.676-.155-.404-.121-.76c.043-.446-.004-.647-.151-.647-.126 0-.212-.207-.212-.508 0-.673-.653-1.325-1.326-1.325-.279 0-.508.075-.508.166 0 .092-.098.167-.219.167s-.651.401-1.178.892c-1.017.946-2.095 1.608-2.618 1.608-.175 0-.318.06-.318.134 0 .169-4.594.161-4.764-.009-.069-.069-.263-.125-.433-.125-.169 0-.438-.067-.597-.148-.159-.082-.664-.326-1.123-.542-.458-.216-.992-.562-1.185-.768-.194-.207-.409-.375-.478-.375-.337 0-1.505-1.594-2.198-3-.159-.321-.335-.621-.393-.667s-.697-1.283-1.42-2.75-1.373-2.692-1.445-2.722c-.072-.031-.131-.143-.132-.25s-.639-1.466-1.417-3.021c-.778-1.554-1.415-2.923-1.415-3.042 0-.118-.075-.215-.167-.215-.091 0-.166-.15-.166-.333 0-.184-.075-.334-.167-.334s-.167-.11-.167-.244c0-.767-1.832-3.089-2.438-3.089-.125 0-.228-.075-.228-.167 0-.096-.525-.166-1.24-.166-.683 0-1.287.075-1.344.166m18.834 8.5c-.057.092-.286.167-.51.167s-.407.075-.407.167c0 .091-.102.166-.227.166-.624 0-2.773 2.461-2.773 3.175 0 .179-.07.325-.155.325-.086 0-.179.713-.209 1.584-.039 1.184 0 1.584.156 1.583.114 0 .208.152.208.337 0 .758 1.707 2.766 2.702 3.178.256.106.465.258.465.339 0 .08.187.146.416.146.23 0 .417.075.417.167 0 .098.611.166 1.5.166s1.5-.068 1.5-.166c0-.092.188-.167.417-.167s.416-.064.416-.141c0-.078.298-.276.661-.44.764-.344 1.669-1.263 2.014-2.044.132-.298.297-.542.366-.542s.126-.183.126-.406c0-.224.075-.454.167-.51.206-.128.221-2.648.018-3.044-.082-.159-.315-.64-.519-1.068-.362-.76-1.503-2.135-1.778-2.142-.076-.002-.325-.15-.555-.33-.229-.179-.581-.327-.781-.329-.201-.002-.412-.079-.469-.171-.056-.091-.769-.166-1.583-.166s-1.527.075-1.583.166m14.68 5.843c-.913.347-2.097 1.396-2.097 1.858 0 .165-.075.299-.167.299-.095 0-.166.5-.166 1.167s.071 1.167.166 1.167c.092 0 .167.337.167.75 0 .412.075.75.167.75.091 0 .166.293.166.652s.089.683.197.719.212.294.232.574c.019.28.118.664.22.854.101.19.185.571.185.847 0 .275.067.542.149.593.082.05.194.392.25.76.055.367.146.968.202 1.335.055.367.168.709.25.76s.149.383.149.739.075.693.166.75c.092.057.167.399.167.76s.075.657.167.657c.091 0 .166.258.166.573 0 .316.075.62.167.677.092.056.167.398.167.76 0 .361.075.656.166.656.092 0 .17.244.173.542s.113.729.244.958c.131.23.241.656.244.949.003.292.088.582.189.645.1.062.154.354.119.65-.037.317.032.626.169.754.149.139.2.411.143.763-.062.382-.018.574.149.638.13.05.237.235.237.412 0 .846.628.62 1.167-.422.229-.443.454-.843.5-.889.045-.045.258-.42.471-.833.767-1.481 2.39-3.167 3.05-3.167.437 0 .882-.683.668-1.026-.104-.166-.189-.599-.189-.962 0-.362-.075-.705-.167-.762-.092-.056-.167-.398-.167-.76 0-.361-.075-.656-.166-.656-.092 0-.167-.3-.167-.667s-.075-.667-.167-.667c-.091 0-.166-.3-.166-.666 0-.367-.075-.667-.167-.667s-.169-.244-.172-.542-.115-.687-.25-.865-.245-.53-.245-.782-.066-.499-.148-.55c-.14-.086-.238-.508-.459-1.97-.052-.345-.162-.668-.244-.719-.082-.05-.149-.345-.149-.655s-.075-.61-.166-.667c-.092-.057-.167-.361-.167-.677 0-.315-.075-.573-.167-.573-.091 0-.166-.3-.166-.667 0-.366-.075-.666-.167-.666s-.167-.258-.167-.574c0-.315-.075-.62-.166-.676-.092-.057-.167-.218-.167-.359 0-1.534-2.502-2.603-4.403-1.882m-37.079 3.052c-.195.235.5 1.919.857 2.078.069.03.125.199.125.375 0 .175.061.319.136.319.074 0 .238.262.364.583s.29.584.364.584c.075 0 .136.15.136.333s.066.333.147.333.194.132.251.292.437.892.843 1.625.946 1.746 1.2 2.25c.253.504.508.954.567 1 .058.046.392.665.741 1.375s.699 1.292.776 1.292c.078 0 .142.143.142.319s.056.345.125.375c.068.031.311.431.539.889s.453.871.5.917c.048.045.196.308.331.583.425.87.707 1.071 1.046.749.288-.273.097-1.161-.25-1.164-.068-.001-.125-.152-.125-.335s-.066-.333-.147-.333-.19-.132-.243-.292-.433-.892-.845-1.625-1.03-1.896-1.374-2.583c-.344-.688-.667-1.288-.718-1.334-.098-.088-.957-1.665-1.249-2.29-.095-.206-.23-.374-.299-.375-.068-.001-.125-.151-.125-.335 0-.183-.075-.333-.166-.333-.092 0-.167-.144-.167-.319 0-.176-.056-.345-.125-.375-.123-.055-.356-.467-1.496-2.639-1.158-2.207-1.416-2.475-1.861-1.939m-2.712 3.564c-1.06 1.082-1.973 2.454-1.973 2.964 0 .134-.075.244-.166.244-.092 0-.167.098-.167.217 0 .12-.245.476-.545.792-.529.558-.878.803-1.83 1.284-.531.268-.549.438-.123 1.124.396.636 1.165 2.244 1.165 2.436 0 .081.075.147.166.147.092 0 .167.115.167.256 0 .857.652 1.207 1.655.888 1.229-.392 2.512-1.353 2.512-1.881 0-.112.357-.574.794-1.025.835-.864.977-.984 2.247-1.894.436-.312.792-.625.792-.695 0-.211-.312-.859-.754-1.566-.229-.366-.546-.948-.704-1.291-.158-.344-.345-.625-.415-.625s-.127-.15-.127-.334c0-.183-.075-.333-.167-.333-.091 0-.166-.15-.166-.333 0-.184-.075-.334-.167-.334s-.167-.111-.167-.248c0-.3-.505-.918-.75-.918-.096 0-.671.506-1.277 1.125m73.401 3.539c-.114.182-.207.438-.207.57 0 .131-.056.263-.125.293-.069.031-.358.506-.642 1.056-1.178 2.276-1.778 3.336-1.918 3.389-.082.03-.148.199-.148.375s-.075.319-.167.319-.167.15-.167.334c0 .183-.056.334-.125.334-.068.001-.208.17-.309.375-.441.894-1.722 3.27-2.132 3.957-.247.413-.491.882-.544 1.042-.052.16-.161.292-.242.292s-.148.15-.148.333-.075.333-.166.333c-.092 0-.167.114-.167.253 0 .864-2.413 3.247-3.288 3.247-.172 0-.392.08-.489.177-.111.111-.926.158-2.198.125-1.503-.038-2.042.002-2.102.157-.043.114-.203.208-.354.208-.356 0-1.402 1.143-1.402 1.533 0 .165-.075.3-.167.3s-.167.144-.167.32c0 .175-.056.344-.125.375-.068.03-.288.372-.489.759-1.635 3.16-1.985 3.803-2.094 3.852-.069.03-.125.199-.125.375s-.075.319-.167.319c-.091 0-.166.144-.166.32 0 .175-.057.344-.125.375-.069.03-.5.805-.959 1.722-.458.917-.872 1.704-.919 1.75s-.272.458-.5.917c-.228.458-.47.858-.539.889-.069.03-.125.199-.125.375 0 .175-.075.319-.167.319-.091 0-.166.105-.166.233 0 .279-.927 2.074-1.263 2.447-.13.145-.237.388-.237.541 0 .154-.075.279-.167.279s-.167.15-.167.333c0 .184-.075.334-.166.334-.092 0-.167.15-.167.333s-.075.333-.167.333c-.091 0-.166.15-.166.334 0 .183-.075.333-.167.333s-.167.15-.167.333c0 .184-.075.334-.166.334-.092 0-.167.15-.167.333s-.075.333-.167.333c-.091 0-.166.15-.166.334 0 .183-.075.333-.167.333s-.167.19-.167.422-.104.462-.231.511c-.27.103-.281 1.843-.014 2.034.089.064.242.261.34.439.098.177.323.402.5.5.177.097.36.222.405.277.046.054.29.149.542.211s.458.186.458.276c0 .3 19.75.215 20-.087.114-.137.322-.25.461-.25.625 0 .695-.456.701-4.529.004-3.296.047-3.988.257-4.199.199-.199.23-.492.146-1.396-.082-.881-.051-1.199.133-1.385.157-.158.236-.58.229-1.227-.006-.6.065-1.01.181-1.049.104-.035.152-.21.106-.388-.091-.345.411-2.47.646-2.735.077-.087.14-.364.14-.615s.075-.503.167-.56.167-.324.167-.593c0-.27.075-.49.166-.49.092 0 .167-.225.167-.5s.075-.5.167-.5c.091 0 .166-.151.166-.336s.067-.466.148-.625.223-.477.316-.706c.359-.886.724-1.621 1.279-2.583.318-.55.934-1.713 1.369-2.584s.832-1.621.882-1.666c.098-.089.958-1.666 1.249-2.291.096-.205.23-.374.299-.375.069 0 .125-.145.125-.32 0-.176.056-.345.125-.375.069-.031.358-.506.642-1.056.285-.55.8-1.525 1.145-2.167.344-.641.861-1.616 1.149-2.166.287-.55.56-1.038.606-1.084.24-.239.525-.994.474-1.255-.063-.328-.347-.504-3.058-1.89-1.008-.516-1.858-.994-1.889-1.063-.03-.069-.199-.125-.375-.125-.175 0-.319-.075-.319-.167 0-.091-.15-.166-.333-.166-.184 0-.334-.075-.334-.167s-.145-.167-.323-.167-.37-.075-.427-.166c-.171-.278-.657-.187-.876.164m40.126 1.336c0 .091-.412.166-.916.166-.505 0-.917.075-.917.167s-.265.167-.589.167c-.369 0-.624.093-.684.25-.059.154-.313.25-.661.25-.312 0-.566.075-.566.166 0 .092-.15.167-.333.167-.184 0-.334.075-.334.167 0 .091-.15.166-.333.166s-.333.075-.333.167-.134.167-.297.167-.405.15-.537.333-.394.333-.583.333-.451.15-.583.334c-.132.183-.31.333-.394.333-.19 0-2.606 2.441-2.606 2.632 0 .077-.225.355-.5.618s-.5.598-.5.744-.15.374-.334.506c-.183.132-.333.374-.333.537s-.075.296-.167.296c-.091 0-.166.146-.166.324s-.075.37-.167.426c-.092.057-.167.286-.167.51s-.075.407-.166.407c-.092 0-.167.188-.167.417 0 .259-.094.416-.25.416-.166 0-.25.166-.25.49 0 .27-.075.537-.167.594-.091.056-.166.431-.166.833s-.075.777-.167.833c-.092.057-.167.624-.167 1.26 0 .66-.071 1.157-.166 1.157-.104 0-.167.913-.167 2.407 0 1.425.068 2.449.167 2.51.091.056.166.623.166 1.26 0 .66.072 1.156.167 1.156.092 0 .167.338.167.75 0 .413.075.75.166.75.092 0 .167.225.167.5 0 .334.083.5.25.5s.25.167.25.5c0 .275.075.5.167.5.091 0 .166.146.166.324s.075.37.167.426c.092.057.167.249.167.427s.075.323.166.323c.092 0 .167.134.167.297s.15.405.333.537c.184.132.334.373.334.536 0 .164.062.297.138.297s.245.206.375.458c.456.883 4 4.203 4.492 4.207.14.001.363.152.495.335s.373.333.536.333c.164 0 .297.075.297.167s.15.167.333.167c.184 0 .334.075.334.166 0 .092.262.167.583.167s.583.075.583.167c0 .091.225.166.5.166s.5.075.5.167.369.167.82.167c.507 0 .846.079.888.208.116.346 6.666.394 6.951.051.127-.153.48-.259.862-.259.355 0 .646-.075.646-.167s.3-.167.667-.167c.366 0 .666-.075.666-.166 0-.092.221-.167.49-.167.27 0 .537-.075.594-.167.056-.091.248-.166.426-.166s.324-.075.324-.167.15-.167.333-.167.333-.075.333-.166c0-.092.15-.167.334-.167.183 0 .333-.075.333-.167 0-.091.15-.166.333-.166.184 0 .334-.075.334-.167s.099-.167.222-.167c.122 0 .322-.187.444-.416.123-.229.304-.419.403-.422.1-.003.387-.187.639-.409l.458-.403v-7.758-7.758h-5.916-5.917v3.5 3.5h2.083 2.084v1.916c0 1.806-.02 1.917-.334 1.917-.183 0-.333.075-.333.167 0 .091-.263.166-.583.166-.321 0-.584.075-.584.167s-.183.167-.406.167c-.224 0-.454.075-.51.166-.058.094-.86.167-1.834.167-.973 0-1.775-.073-1.833-.167-.057-.091-.399-.166-.76-.166s-.657-.075-.657-.167-.15-.167-.333-.167-.333-.075-.333-.166c0-.092-.15-.167-.334-.167-.183 0-.333-.075-.333-.167 0-.091-.111-.166-.247-.166-.304 0-2.586-2.244-2.586-2.543 0-.12-.15-.325-.334-.457-.183-.132-.333-.374-.333-.537s-.075-.297-.167-.297c-.091 0-.166-.187-.166-.416s-.075-.417-.167-.417-.167-.225-.167-.5-.075-.5-.166-.5c-.092 0-.167-.408-.167-.907s-.075-.953-.167-1.01c-.091-.056-.166-.698-.166-1.426 0-.771.069-1.324.166-1.324.093 0 .167-.444.167-1 0-.555.074-1 .167-1 .091 0 .166-.188.166-.419 0-.23.07-.549.156-.708s.254-.533.374-.831.275-.542.344-.542c.07 0 .126-.15.126-.333s.075-.333.167-.333.167-.134.167-.297.15-.405.333-.537.333-.336.333-.453.094-.195.209-.172c.114.023.189-.052.166-.166-.023-.115.076-.209.219-.209.142 0 .213-.075.156-.166-.056-.092-.002-.167.12-.167.123 0 .332-.15.464-.333.132-.184.357-.334.5-.334s.368-.15.5-.333.406-.333.61-.333c.203 0 .416-.075.473-.167s.319-.167.583-.167c.265 0 .527-.075.584-.166.056-.092.473-.167.926-.167s.824-.075.824-.167c0-.096.527-.166 1.25-.166.722 0 1.25.07 1.25.166 0 .094.472.167 1.083.167s1.083.073 1.083.167c0 .091.296.166.657.166s.703.075.76.167.282.167.5.167.443.075.5.166c.057.092.249.167.427.167.177 0 .323.075.323.167 0 .091.225.166.5.166s.5.075.5.167.15.167.333.167c.184 0 .334.075.334.166 0 .092.15.167.333.167s.333.075.333.167c0 .091.158.166.351.166s.499.188.679.417c.189.24.499.417.732.417h.405v-4.417c0-3.514-.044-4.417-.217-4.417-.306 0-1.113-.392-1.115-.541-.001-.069-.189-.125-.418-.125s-.417-.075-.417-.167-.15-.167-.333-.167-.333-.075-.333-.166c0-.092-.225-.167-.5-.167s-.5-.075-.5-.167c0-.091-.228-.166-.506-.166-.295 0-.545-.104-.601-.25-.062-.163-.322-.25-.744-.25-.357 0-.649-.075-.649-.167 0-.094-.469-.167-1.074-.167-.59 0-1.12-.075-1.176-.166-.063-.101-1.28-.167-3.094-.167-1.882 0-2.99.062-2.99.167m171.33 0c0 .091-.333.166-.74.166-.408 0-.787.075-.844.167-.056.092-.326.167-.598.167-.287 0-.536.105-.591.25-.053.137-.238.25-.412.25-.173 0-.315.075-.315.166 0 .092-.15.167-.334.167-.183 0-.333.075-.333.167 0 .091-.187.166-.417.166-.229 0-.416.075-.416.167s-.12.167-.267.167c-.146 0-.476.225-.733.5s-.553.5-.657.5c-.245 0-1.506 1.282-1.382 1.406.052.051.001.094-.112.094-.264 0-.683.415-.683.678 0 .111-.225.417-.5.68s-.5.59-.5.726c0 .137-.075.249-.166.249-.092 0-.167.112-.167.25 0 .137-.075.25-.167.25-.091 0-.166.15-.166.333 0 .184-.075.334-.167.334s-.167.15-.167.333-.069.333-.154.333c-.197 0-.679.958-.679 1.349 0 .164-.075.345-.167.401-.091.057-.166.324-.166.594 0 .269-.075.49-.167.49s-.167.225-.167.5-.075.5-.166.5c-.092 0-.167.412-.167.916s-.075.917-.167.917c-.107 0-.166 1.611-.166 4.5s.059 4.5.166 4.5c.092 0 .167.337.167.75s.075.75.167.75c.091 0 .166.3.166.667 0 .366.075.666.167.666s.167.225.167.5.075.5.166.5c.092 0 .167.156.167.346 0 .189.113.458.252.596.138.139.208.321.156.405s.023.153.165.153c.149 0 .26.143.26.334 0 .183.075.333.167.333s.167.15.167.333c0 .184.075.334.166.334.092 0 .167.111.167.248 0 .228.262.617.792 1.175.114.121.208.302.208.404 0 .187 1.077 1.339 1.252 1.339.127 0 .915.79.915.917 0 .159.745.829.976.879.117.025.371.193.566.375.195.181.49.329.656.329s.302.075.302.167.15.167.333.167.333.075.333.166c0 .092.15.167.334.167.183 0 .333.075.333.167 0 .091.221.166.49.166.27 0 .537.075.593.167.057.092.466.167.909.167.562 0 .835.075.902.25.079.207.537.25 2.689.25s2.61-.043 2.69-.25c.065-.17.331-.25.828-.25.403 0 .732-.075.732-.167s.3-.167.667-.167.667-.075.667-.166c0-.092.145-.167.323-.167s.37-.075.427-.167c.056-.091.248-.166.426-.166s.324-.075.324-.167.133-.167.296-.167.405-.15.537-.333.34-.333.461-.333c.262 0 1.039-.743 1.039-.993 0-.096.135-.174.301-.174.336 0 1.532-1.025 1.532-1.314 0-.102.3-.495.667-.873.367-.377.667-.798.667-.934s.187-.395.416-.575c.23-.181.417-.435.417-.566s.075-.238.167-.238c.091 0 .166-.15.166-.333 0-.184.075-.334.167-.334s.167-.145.167-.323.075-.37.166-.427c.092-.056.167-.323.167-.593 0-.269.075-.49.167-.49.091 0 .166-.225.166-.5s.075-.5.167-.5.167-.225.167-.5.075-.5.166-.5c.092 0 .167-.413.167-.917s.075-.916.167-.916c.107 0 .166-1.556.166-4.334 0-2.777-.059-4.333-.166-4.333-.092 0-.167-.337-.167-.75s-.075-.75-.167-.75c-.091 0-.166-.3-.166-.667 0-.366-.075-.666-.167-.666s-.167-.221-.167-.49c0-.27-.075-.537-.166-.594-.092-.056-.167-.248-.167-.426s-.075-.324-.167-.324c-.091 0-.166-.225-.166-.5s-.075-.5-.167-.5-.167-.098-.167-.218-.15-.38-.333-.577c-.183-.196-.333-.418-.333-.491 0-.074-.188-.336-.417-.583s-.417-.529-.417-.627-.393-.574-.875-1.058c-.481-.485-1.024-1.083-1.206-1.33s-.396-.449-.475-.449-.353-.225-.61-.5-.571-.5-.697-.5-.338-.15-.47-.333c-.132-.184-.374-.334-.537-.334s-.296-.075-.296-.166c0-.092-.146-.167-.324-.167s-.37-.075-.426-.167c-.057-.091-.217-.166-.355-.166-.139 0-.365-.113-.502-.25-.138-.138-.47-.25-.739-.25-.268 0-.488-.075-.488-.167s-.333-.167-.74-.167-.786-.075-.843-.166c-.061-.099-1.113-.167-2.593-.167-1.549 0-2.49.063-2.49.167m-227.67.162c-.138.079-.535.267-.883.419-.698.303-2.45 1.987-2.45 2.354 0 .127-.075.231-.167.231s-.167.15-.167.334c0 .183-.066.333-.148.333-.161 0-.32.739-.462 2.146-.11 1.099.126 1.6.934 1.983 1.426.675 3.176 2.692 3.176 3.66 0 .634 3.172 1.063 4.128.558.159-.084.58-.279.937-.435 1.334-.582 2.658-2.25 3.245-4.09.235-.734.251-2.765.024-2.905-.092-.057-.167-.324-.167-.594 0-.269-.075-.49-.167-.49-.091 0-.166-.15-.166-.333s-.075-.333-.167-.333-.167-.093-.167-.207c0-.279-1.968-2.127-2.265-2.127-.129 0-.235-.075-.235-.166 0-.092-.187-.167-.416-.167s-.417-.075-.417-.167c0-.205-3.641-.209-4-.004m296.94.115c-.061.062-.111.324-.111.584 0 .259-.075.472-.166.472-.092 0-.167.225-.167.5s-.075.5-.167.5c-.091 0-.166.225-.166.5s-.075.5-.167.5-.167.262-.167.583-.075.584-.166.584c-.092 0-.167.217-.167.482 0 .275-.107.523-.25.578-.137.053-.25.281-.25.508s-.075.458-.167.515c-.091.057-.166.324-.166.593 0 .27-.075.49-.167.49s-.167.225-.167.5-.075.5-.166.5c-.092 0-.167.225-.167.5s-.075.5-.167.5c-.091 0-.166.263-.166.584 0 .32-.075.583-.167.583s-.167.225-.167.5-.075.5-.166.5c-.092 0-.167.225-.167.5s-.075.5-.167.5c-.091 0-.166.225-.166.5s-.075.5-.167.5-.167.262-.167.583c0 .408-.075.584-.25.584-.137 0-.25.113-.25.252s-.065.382-.146.542c-.223.442-.52 1.446-.52 1.759 0 .154-.075.28-.167.28s-.167.225-.167.5-.075.5-.166.5c-.092 0-.167.221-.167.49 0 .27-.075.537-.167.593-.091.057-.166.324-.166.594 0 .269-.075.49-.167.49s-.167.225-.167.5-.075.5-.166.5c-.092 0-.167.225-.167.5s-.075.5-.167.5c-.091 0-.166.262-.166.583s-.069.583-.154.583c-.084 0-.202.224-.263.498-.06.274-.178.541-.263.594-.084.052-.154.278-.154.502 0 .223-.075.406-.166.406-.092 0-.167.263-.167.584 0 .32-.075.583-.167.583-.091 0-.166.225-.166.5s-.075.5-.167.5-.167.225-.167.5-.075.5-.166.5c-.092 0-.167.225-.167.5s-.075.5-.167.5c-.091 0-.166.262-.166.583s-.075.584-.167.584-.167.225-.167.5-.075.5-.166.5c-.092 0-.167.225-.167.5s-.075.5-.167.5c-.091 0-.166.262-.166.583 0 .407-.076.583-.25.583-.138 0-.25.146-.25.324s-.075.37-.167.426c-.092.057-.167.436-.167.844v.74h2.5c2.389 0 2.5-.015 2.5-.334 0-.183.075-.333.167-.333s.167-.221.167-.49c0-.27.075-.537.166-.593.092-.057.167-.282.167-.5 0-.219.075-.444.167-.5.091-.057.166-.324.166-.594 0-.269.075-.49.167-.49s.167-.225.167-.5.075-.5.166-.5c.092 0 .167-.22.167-.49 0-.269.075-.536.167-.593.091-.057.166-.291.166-.522 0-.23.113-.531.25-.668.138-.138.25-.391.25-.562s.075-.358.167-.415c.092-.056.167-.281.167-.5 0-.218.075-.443.166-.5.092-.056.167-.323.167-.593 0-.269.075-.49.167-.49.091 0 .166-.15.166-.333 0-.327.111-.334 5.75-.334s5.75.007 5.75.334c0 .185.111.333.25.333.175 0 .25.176.25.583 0 .321.075.584.167.584s.167.225.167.5.075.5.166.5c.092 0 .167.225.167.5s.075.5.167.5c.091 0 .166.187.166.416 0 .23.075.417.167.417s.167.225.167.5.075.5.166.5c.092 0 .167.225.167.5s.075.5.167.5c.091 0 .166.225.166.5s.075.5.167.5.167.221.167.49c0 .27.075.537.166.593.092.057.167.249.167.427s.075.323.167.323c.091 0 .166.139.166.308 0 .869.455 1.026 2.978 1.026h2.356v-.5c0-.275-.075-.5-.167-.5s-.167-.225-.167-.5-.075-.5-.166-.5c-.092 0-.167-.15-.167-.334 0-.183-.075-.333-.167-.333-.091 0-.166-.263-.166-.583 0-.321-.075-.584-.167-.584s-.167-.225-.167-.5-.075-.5-.166-.5c-.092 0-.167-.19-.167-.422s-.113-.465-.25-.517c-.141-.054-.25-.303-.25-.569 0-.259-.075-.518-.167-.575-.091-.057-.166-.249-.166-.427 0-.177-.075-.323-.167-.323s-.167-.225-.167-.5-.075-.5-.166-.5c-.092 0-.167-.225-.167-.5s-.075-.5-.167-.5c-.091 0-.166-.221-.166-.49 0-.27-.075-.537-.167-.593-.092-.057-.167-.282-.167-.5 0-.219-.075-.444-.166-.5-.092-.057-.167-.324-.167-.594 0-.269-.075-.49-.167-.49-.091 0-.166-.187-.166-.416s-.075-.417-.167-.417-.167-.19-.167-.422-.112-.465-.25-.518c-.142-.054-.25-.303-.25-.578 0-.265-.075-.482-.166-.482-.092 0-.167-.263-.167-.583 0-.321-.075-.584-.167-.584-.091 0-.166-.183-.166-.406 0-.224-.075-.454-.167-.51-.092-.057-.167-.249-.167-.427s-.075-.323-.166-.323c-.092 0-.167-.225-.167-.5s-.075-.5-.167-.5c-.091 0-.166-.221-.166-.49 0-.27-.075-.537-.167-.594-.092-.056-.167-.323-.167-.593 0-.269-.075-.49-.166-.49-.092 0-.167-.225-.167-.5s-.075-.5-.167-.5c-.091 0-.166-.146-.166-.323 0-.178-.075-.37-.167-.427s-.167-.288-.167-.515-.112-.455-.25-.508c-.142-.055-.25-.303-.25-.578 0-.265-.075-.482-.166-.482-.092 0-.167-.263-.167-.584s-.075-.583-.167-.583c-.091 0-.166-.183-.166-.407s-.075-.453-.167-.51c-.092-.056-.167-.248-.167-.426s-.075-.324-.166-.324c-.092 0-.167-.225-.167-.5s-.075-.5-.167-.5c-.091 0-.166-.22-.166-.49 0-.269-.075-.536-.167-.593s-.167-.324-.167-.593c0-.27-.075-.49-.166-.49-.092 0-.167-.151-.167-.336s-.07-.466-.157-.625c-.086-.159-.2-.499-.254-.754-.055-.256-.172-.421-.261-.366s-.161-.092-.161-.326c0-.235-.075-.427-.167-.427s-.167-.225-.167-.5-.075-.5-.166-.5c-.092 0-.169-.206-.172-.458-.011-.916-.275-1.042-2.194-1.042-.96 0-1.795.05-1.857.111m-211.11 18.473v18.25h3.834 3.833v-18.25-18.25h-3.833-3.834zm22.083-17.875c-.05.206-.07 8.4-.045 18.208l.046 17.833 22.75.086v-3.668-3.668h-7.334-7.333v-14.583-14.583h-3.997-3.997zm42.704-.04c-.157.184-.287.522-.287.75s-.075.415-.166.415c-.092 0-.167.3-.167.666 0 .367-.075.667-.167.667-.091 0-.166.262-.166.583s-.075.584-.167.584-.167.225-.167.5-.075.5-.166.5c-.092 0-.167.225-.167.5s-.075.5-.167.5c-.091 0-.166.262-.166.583s-.075.583-.167.583-.167.225-.167.5-.075.5-.166.5c-.092 0-.167.217-.167.483 0 .274-.107.523-.25.578-.146.056-.25.305-.25.601 0 .278-.075.505-.167.505-.091 0-.166.225-.166.5s-.075.5-.167.5-.167.221-.167.49c0 .27-.075.537-.166.593-.092.057-.167.399-.167.76s-.075.657-.167.657c-.091 0-.166.225-.166.5s-.075.5-.167.5-.167.225-.167.5-.075.5-.166.5c-.092 0-.167.262-.167.583s-.075.584-.167.584c-.091 0-.166.225-.166.5s-.075.5-.167.5-.167.193-.167.428c0 .236-.112.541-.25.679-.137.137-.25.432-.25.655 0 .222-.075.404-.166.404-.092 0-.167.225-.167.5s-.075.5-.167.5c-.091 0-.166.221-.166.49 0 .27-.075.537-.167.594-.092.056-.167.323-.167.593 0 .269-.075.49-.166.49-.092 0-.167.3-.167.667 0 .366-.075.666-.167.666-.091 0-.166.225-.166.5s-.075.5-.167.5-.167.263-.167.584c0 .32-.075.583-.166.583-.092 0-.167.225-.167.5s-.075.5-.167.5c-.091 0-.166.225-.166.5s-.075.5-.167.5-.167.227-.167.505c0 .296-.104.545-.25.601-.142.055-.25.304-.25.578 0 .266-.075.483-.166.483-.092 0-.167.22-.167.49 0 .269-.075.536-.167.593-.091.057-.166.324-.166.593 0 .27-.075.49-.167.49s-.167.225-.167.5-.075.5-.166.5c-.092 0-.167.3-.167.667s-.075.667-.167.667c-.091 0-.166.225-.166.5v.5h4.166 4.167v-.483c0-.274.107-.523.25-.578.137-.052.25-.281.25-.508 0-.226.067-.453.148-.503.14-.087.191-.292.449-1.803.058-.344.173-.625.255-.625.081 0 .148-.221.148-.49 0-.27.075-.537.167-.594.091-.056.166-.291.166-.521 0-.899-.024-.895 6.572-.895h6.095v.583c0 .321.075.583.167.583.091 0 .166.225.166.5s.075.5.167.5.167.225.167.5.075.5.166.5c.092 0 .167.221.167.49 0 .27.075.537.167.594.091.056.166.323.166.593 0 .269.075.49.167.49s.167.225.167.5.066.5.147.5.186.15.234.333c.085.322.228.334 4.27.334h4.182v-.667c0-.367-.075-.667-.167-.667-.091 0-.166-.225-.166-.5s-.075-.5-.167-.5-.167-.225-.167-.5-.075-.5-.166-.5c-.092 0-.167-.187-.167-.416s-.075-.417-.167-.417c-.091 0-.166-.225-.166-.5 0-.333-.084-.5-.25-.5-.167 0-.25-.167-.25-.5 0-.275-.075-.5-.167-.5s-.167-.263-.167-.583c0-.321-.075-.584-.166-.584-.092 0-.167-.225-.167-.5s-.075-.5-.167-.5c-.091 0-.166-.15-.166-.333s-.075-.333-.167-.333-.167-.263-.167-.584-.075-.583-.166-.583c-.092 0-.167-.225-.167-.5s-.075-.5-.167-.5c-.091 0-.166-.225-.166-.5s-.075-.5-.167-.5-.167-.221-.167-.49c0-.27-.075-.537-.166-.593-.092-.057-.167-.282-.167-.5 0-.219-.075-.444-.167-.5-.091-.057-.166-.249-.166-.427s-.113-.323-.25-.323c-.167 0-.25-.167-.25-.5 0-.275-.075-.5-.167-.5s-.167-.263-.167-.584-.075-.583-.166-.583c-.092 0-.167-.225-.167-.5s-.075-.5-.167-.5c-.091 0-.166-.225-.166-.5s-.075-.5-.167-.5-.167-.221-.167-.49c0-.27-.075-.537-.166-.593-.092-.057-.167-.249-.167-.427s-.075-.323-.167-.323c-.091 0-.166-.225-.166-.5s-.075-.5-.167-.5-.167-.225-.167-.5-.075-.5-.166-.5c-.092 0-.167-.228-.167-.506 0-.295-.104-.545-.25-.601-.143-.054-.25-.303-.25-.578 0-.265-.075-.482-.167-.482-.091 0-.166-.15-.166-.333 0-.184-.075-.334-.167-.334s-.167-.262-.167-.583-.075-.583-.166-.583c-.092 0-.167-.225-.167-.5s-.075-.5-.167-.5c-.091 0-.166-.225-.166-.5s-.075-.5-.167-.5-.167-.122-.167-.27c0-.376-.721-2.468-.874-2.536-.069-.03-.126-.266-.126-.524 0-.262-.11-.51-.25-.564-.137-.053-.25-.281-.25-.508s-.075-.458-.166-.515c-.092-.057-.167-.324-.167-.593 0-.27-.075-.49-.167-.49-.091 0-.166-.225-.166-.5s-.075-.5-.167-.5-.167-.113-.167-.25c0-.448-8.826-.366-9.213.085m33.158-.224c-.061.061-.111 8.273-.111 18.25v18.139h6c3.889 0 6-.059 6-.167 0-.092.412-.167.916-.167s.917-.075.917-.166c0-.092.225-.167.5-.167s.5-.075.5-.167c0-.091.15-.166.333-.166.184 0 .334-.075.334-.167s.093-.167.208-.167.41-.174.657-.386c.246-.212.64-.53.875-.706.234-.176.426-.385.426-.464s.225-.353.5-.61.5-.571.5-.697.15-.338.334-.47c.195-.141.333-.431.333-.703 0-.255.075-.464.167-.464.091 0 .166-.262.166-.583 0-.407.076-.583.25-.583.197 0 .25-.232.25-1.084 0-.611.073-1.083.167-1.083.092 0 .167-.408.167-.907s-.075-.953-.167-1.01c-.092-.056-.167-.505-.167-.998 0-.573-.09-.984-.25-1.145-.137-.137-.25-.442-.25-.678s-.075-.429-.166-.429c-.092 0-.167-.15-.167-.333s-.075-.333-.167-.333c-.091 0-.166-.15-.166-.334 0-.183-.075-.333-.167-.333s-.167-.15-.167-.333c0-.184-.075-.334-.166-.334-.092 0-.167-.081-.167-.179 0-.099-.292-.456-.648-.792-1.007-.95-1.336-1.195-1.604-1.195-.136 0-.248-.075-.248-.167s-.15-.167-.333-.167c-.184 0-.334-.075-.334-.166 0-.092-.15-.167-.333-.167-.244 0-.333-.111-.333-.417 0-.263.094-.416.255-.416.29 0 1.411-1.061 1.411-1.336 0-.099.188-.367.417-.596s.417-.596.417-.816.075-.446.166-.502c.092-.057.167-.286.167-.51s.075-.407.167-.407c.104 0 .166-1.024.166-2.74 0-1.647-.066-2.781-.166-2.843-.092-.057-.167-.399-.167-.76s-.075-.657-.167-.657c-.091 0-.166-.115-.166-.255 0-.141-.113-.299-.25-.351-.138-.053-.25-.238-.25-.412 0-.173-.075-.315-.167-.315s-.167-.144-.167-.319c0-.368-2.057-2.515-2.41-2.515-.13 0-.283-.075-.34-.166-.056-.092-.248-.167-.426-.167s-.324-.075-.324-.167c0-.091-.292-.166-.649-.166-.422 0-.682-.087-.744-.25-.101-.263-10.904-.397-11.162-.139m75.171-.005c-.064.064-.116 8.278-.116 18.255v18.139h8.834 8.833v-2.584-2.583h-6.332-6.333l-.042-15.625-.043-15.625-2.343-.046c-1.288-.025-2.395.006-2.458.069m-27.032 5.06c.056.092.398.167.76.167.361 0 .656.075.656.167 0 .091.15.166.334.166.183 0 .333.075.333.167s.15.167.333.167c.184 0 .334.075.334.166 0 .092.15.167.333.167s.333.075.333.167c0 .091.117.166.26.166s.214.075.157.167.01.167.147.167c.298 0 2.27 1.893 2.27 2.179 0 .109.137.32.305.468s.445.588.616.978c.17.389.37.708.444.708s.135.15.135.333c0 .184.075.334.166.334.092 0 .167.15.167.333s.075.333.167.333c.091 0 .166.221.166.49 0 .27.075.537.167.594.092.056.167.398.167.76 0 .361.075.656.166.656.105 0 .167 1.111.167 3s-.062 3-.167 3c-.091 0-.166.3-.166.667s-.075.667-.167.667-.167.262-.167.583-.075.583-.166.583c-.092 0-.167.225-.167.5s-.075.5-.167.5c-.091 0-.166.115-.166.256 0 .14-.113.298-.25.351-.138.052-.25.238-.25.411 0 .174-.057.316-.126.316-.07 0-.234.242-.365.539-.324.733-2.929 3.294-3.35 3.294-.093 0-.213.112-.266.25-.052.137-.238.25-.411.25-.174 0-.316.075-.316.167 0 .091-.15.166-.333.166s-.333.075-.333.167-.221.167-.49.167c-.27 0-.537.075-.594.166-.056.092-.548.167-1.093.167-.549 0-.99.074-.99.167 0 .091-.113.166-.25.166-.138 0-.25-.075-.25-.166 0-.093-.444-.167-1-.167s-1-.074-1-.167c0-.091-.221-.166-.49-.166-.27 0-.537-.075-.593-.167-.057-.092-.29-.167-.518-.167s-.591-.168-.806-.375c-.216-.206-.606-.539-.868-.74-.949-.729-2.725-2.523-2.725-2.753 0-.129-.131-.385-.292-.567-.412-.469-.708-1.017-.708-1.312 0-.139-.075-.253-.167-.253-.091 0-.166-.225-.166-.5s-.067-.5-.148-.5c-.082 0-.198-.262-.258-.583s-.181-.583-.269-.583c-.087 0-.159-.3-.159-.667s-.075-.667-.166-.667c-.105 0-.167-1.055-.167-2.833s.062-2.833.167-2.833c.091 0 .166-.291.166-.647 0-.355.097-.726.214-.823.118-.098.233-.426.255-.729.023-.303.115-.576.203-.607.089-.03.162-.199.162-.375s.075-.319.166-.319c.092 0 .167-.188.167-.417s.056-.417.125-.418c.14-.001.542-.801.542-1.078 0-.099.15-.289.333-.421s.333-.343.333-.47c0-.236.381-.624 1.747-1.78.434-.366.887-.76 1.009-.875.121-.114.338-.208.482-.208s.262-.075.262-.167c0-.091.15-.166.334-.166.183 0 .333-.075.333-.167s.188-.167.417-.167.416-.075.416-.166c0-.092.3-.167.667-.167s.667-.075.667-.167c0-.099.635-.166 1.573-.166.869 0 1.62.074 1.677.166m-38.334.334c.057.091.249.166.427.166s.323.075.323.167.118.167.262.167c.337 0 .738.401.738.738 0 .144.075.262.167.262s.167.112.167.25c0 .137.075.25.166.25.092 0 .167.225.167.5s.075.5.167.5c.098 0 .166.583.166 1.416 0 .834-.068 1.417-.166 1.417-.092 0-.167.225-.167.5s-.075.5-.167.5c-.091 0-.166.192-.166.427 0 .241-.072.381-.167.323-.092-.057-.167-.022-.167.078 0 .424-1.489 1.672-1.995 1.672-.278 0-.505.075-.505.167 0 .103-.861.166-2.25.166h-2.25v-4.916-4.917h2.574c1.536 0 2.615.067 2.676.167m-237 4c-.056.091-.267.166-.469.166-.47 0-1.929 1.16-1.939 1.542-.005.16-.079.292-.165.292-.088 0-.18.918-.209 2.062-.039 1.598-.004 2.045.157 1.982.143-.055.209.109.209.521 0 .331.075.601.166.601.092 0 .167.221.167.49 0 .27.066.531.147.581.139.087.478 1.063.871 2.513.1.366.249.797.332.956.082.159.15.478.15.708s.084.419.186.419c.11 0 .156.199.113.494-.046.311.009.524.147.578.122.046.221.312.221.589 0 .278.075.506.166.506.092 0 .167.22.167.49 0 .269.075.536.167.593.091.057.166.25.166.429s.065.456.145.615c.324.65.861 2.395.91 2.956.016.183.128.438.25.567.122.128.186.369.142.535-.043.166.026.389.154.496.128.106.233.404.233.663 0 .258.075.516.166.572.092.057.167.282.167.5 0 .219.075.444.167.5.091.057.166.319.166.584 0 .264.075.526.167.583s.167.282.167.5.075.443.166.5c.092.057.167.319.167.583 0 .265.075.527.167.584.091.056.166.323.166.593 0 .269.075.49.167.49s.167.23.167.512c0 .281.105.618.235.747.131.131.194.391.143.588-.053.2 0 .411.122.486.211.131.351.698.697 2.834.097.595.207 3.539.244 6.54l.067 5.457.585.585c.411.41.734.584 1.089.584.293 0 .461.07.401.167-.068.11 2.97.167 8.99.167 5.951 0 9.093-.058 9.093-.167 0-.092.23-.167.51-.167.361 0 .652-.156 1-.537l.49-.537.006-2.338c.004-1.345.105-2.798.238-3.421.168-.785.208-1.797.144-3.679-.076-2.233-.051-2.634.177-2.862.21-.21.245-.473.164-1.247-.079-.758-.045-1.038.15-1.234.183-.182.23-.465.168-1.011-.052-.466-.014-.801.101-.872.102-.063.186-.333.186-.6 0-.487.787-2.363 1.035-2.467.072-.031.131-.2.131-.375 0-.176.075-.32.167-.32s.167-.15.167-.333.075-.333.166-.333c.092 0 .167-.15.167-.334 0-.183.075-.333.167-.333.091 0 .166-.104.166-.232 0-.127.305-.783.677-1.458s.718-1.358.769-1.518c.051-.161.159-.292.24-.292s.148-.093.148-.208c0-.214 2.953-6.156 3.5-7.042.17-.275.314-.625.321-.778s.068-.303.137-.333c.176-.079 1.208-2.139 1.208-2.412 0-.125.075-.227.167-.227s.167-.109.167-.242.229-.639.509-1.125.551-1.014.603-1.175c.051-.16.159-.291.24-.291s.148-.15.148-.334c0-.183.075-.333.166-.333.092 0 .167-.219.167-.486s.083-.514.184-.548c.291-.097.34-1.466.052-1.466-.151 0-.236-.18-.236-.5 0-.275-.075-.5-.167-.5-.091 0-.166-.122-.166-.272 0-.32-1.374-1.64-2.067-1.986-.562-.281-3.267-.343-3.267-.075 0 .091-.119.166-.265.166-.358 0-1.56.865-1.564 1.125-.002.115-.079.209-.171.209-.091 0-.166.15-.166.333s-.075.333-.167.333-.167.146-.167.324-.075.37-.166.426c-.092.057-.167.249-.167.427s-.075.323-.167.323c-.091 0-.166.106-.166.235 0 .128-.145.522-.322.875-.705 1.406-1.512 3.208-1.512 3.377 0 .099-.075.18-.166.18-.092 0-.167.15-.167.333 0 .184-.075.334-.167.334-.091 0-.166.15-.166.333s-.075.333-.167.333-.167.15-.167.334c0 .183-.075.333-.166.333-.092 0-.167.144-.167.319 0 .176-.056.345-.125.375-.069.031-.425.637-.792 1.346-.366.71-.723 1.291-.791 1.292-.069.001-.125.1-.125.22s-.15.379-.334.576c-.183.197-.333.422-.333.5s-.133.288-.296.466c-.163.177-.476.585-.696.906-.519.756-2.022 2.224-2.669 2.606-.278.165-.506.358-.506.43s-.15.131-.333.131-.333.075-.333.166c0 .092-.15.167-.334.167-.183 0-.333.075-.333.167 0 .091-.225.166-.5.166s-.5.075-.5.167-.331.167-.736.167-.764.084-.798.186c-.085.253-3.182.249-3.266-.003-.034-.101-.28-.183-.547-.183-.268 0-.486-.075-.486-.167s-.15-.167-.334-.167c-.183 0-.333-.075-.333-.166 0-.092-.105-.167-.234-.167-.283 0-2.177-1.823-2.858-2.75-.269-.367-.527-.704-.574-.75-.164-.162-.689-1.088-.78-1.375-.051-.16-.159-.292-.24-.292s-.147-.15-.147-.333-.075-.333-.167-.333-.167-.15-.167-.334c0-.183-.075-.333-.166-.333-.092 0-.167-.146-.167-.323 0-.178-.075-.37-.167-.427-.091-.057-.166-.249-.166-.427 0-.177-.075-.323-.167-.323s-.167-.155-.167-.345-.116-.461-.257-.603c-.142-.142-.229-.342-.195-.445s-.037-.287-.159-.409-.222-.362-.222-.533c0-.172-.075-.358-.167-.415-.091-.057-.166-.282-.166-.5s-.075-.443-.167-.5-.167-.286-.167-.51-.075-.407-.166-.407c-.092 0-.167-.258-.167-.573 0-.316-.075-.62-.167-.677-.091-.056-.166-.319-.166-.583s-.075-.527-.167-.583c-.092-.057-.167-.361-.167-.677 0-.315-.075-.573-.166-.573-.092 0-.167-.266-.167-.591 0-.659-.083-.792-1.208-1.937-.435-.443-.937-.806-1.115-.806s-.37-.075-.427-.166c-.057-.092-.432-.167-.833-.167-.402 0-.777.075-.834.167m342.51.238c.131.131.238.426.238.657 0 .23.075.465.167.521.092.057.167.249.167.427s.075.323.166.323c.092 0 .167.225.167.5s.075.5.167.5c.091 0 .166.221.166.49 0 .27.075.537.167.594.092.056.167.323.167.593 0 .269.075.49.166.49.092 0 .167.225.167.5s.075.5.167.5c.091 0 .166.15.166.333 0 .184.075.334.167.334s.167.217.167.482c0 .275.107.523.25.578.146.056.25.306.25.601 0 .278.075.505.166.505.092 0 .167.225.167.5s.075.5.167.5c.091 0 .166.188.166.417v.417h-3.916c-3.237 0-3.917-.041-3.917-.233 0-.127.113-.275.25-.328.137-.052.25-.285.25-.517s.075-.422.167-.422c.091 0 .166-.221.166-.49 0-.27.075-.537.167-.594.092-.056.167-.281.167-.5 0-.218.075-.443.166-.5.092-.056.167-.323.167-.593 0-.269.075-.49.167-.49.091 0 .166-.225.166-.5s.075-.5.167-.5.167-.221.167-.49c0-.27.075-.537.166-.593.092-.057.167-.324.167-.594 0-.269.075-.49.167-.49.091 0 .166-.225.166-.5s.075-.5.167-.5.167-.267.167-.593c0-.353.067-.551.166-.49.1.061.167-.137.167-.49 0-.628.202-.748.595-.355m-143.43 1.438c0 .27.075.49.166.49.092 0 .167.225.167.5s.075.5.167.5c.091 0 .166.221.166.49 0 .27.075.537.167.594.092.056.167.323.167.593 0 .269.075.49.166.49.092 0 .167.225.167.5s.075.5.167.5c.091 0 .166.178.166.396s.113.49.25.604c.138.114.25.423.25.687s.075.48.167.48.167.225.167.5.075.5.166.5c.092 0 .167.225.167.5s.075.5.167.5c.091 0 .166.262.166.583s.075.583.167.583.167.225.167.5.075.5.166.5c.092 0 .167.075.167.167 0 .106-1.395.167-3.853.167h-3.853l.115-.459c.063-.252.155-.702.205-1.001.049-.299.156-.585.238-.635.081-.05.148-.312.148-.582 0-.269.075-.49.167-.49.091 0 .166-.225.166-.5s.075-.5.167-.5.167-.3.167-.667c0-.366.075-.666.166-.666.092 0 .167-.263.167-.584s.075-.583.167-.583c.091 0 .166-.225.166-.5s.075-.5.167-.5.167-.337.167-.75c0-.556.064-.75.25-.75.166 0 .25-.167.25-.5 0-.275.075-.5.166-.5.092 0 .167-.221.167-.49 0-.27.075-.537.167-.593.091-.057.166-.253.166-.437 0-.183.075-.287.167-.23s.167.324.167.593m-183.83 3.949c0 .114-.135.208-.3.208-.372 0-1.197.373-1.198.542-.001.068-.098.125-.216.125-.657 0-2.619 2.751-2.619 3.673 0 .169-.075.353-.167.41-.091.057-.166.582-.166 1.167s.075 1.11.166 1.166c.092.057.167.226.167.375 0 .982 2.223 3.875 2.976 3.875.105 0 .191.075.191.167s.15.167.333.167.333.075.333.166c0 .092.303.167.672.167.444 0 .705.085.768.25.065.168.329.25.81.25.482 0 .746-.082.811-.25.063-.165.324-.25.767-.25.37 0 .672-.075.672-.167 0-.091.15-.166.334-.166.183 0 .333-.075.333-.167s.102-.167.228-.167c1.139 0 3.173-3.472 3.173-5.416 0-1.85-1.84-5.225-2.859-5.246-.115-.002-.209-.061-.21-.129-.002-.168-.824-.542-1.19-.542-.161 0-.352-.094-.425-.208-.092-.144-.641-.209-1.759-.209-1.189 0-1.625.056-1.625.209m222.33 5.623c1.493.174 4 1.678 4 2.4 0 .096.15.442.333.768.366.652.502 3.584.167 3.584-.092 0-.167.208-.167.463 0 .272-.138.562-.333.703-.184.132-.334.357-.334.5s-.15.368-.333.5-.333.337-.333.454-.188.213-.417.213-.417.056-.418.125c-.002.24-.903.542-1.615.542-.394 0-.717.075-.717.166 0 .105-1.056.167-2.833.167h-2.834v-5.425-5.425l2.459.079c1.352.043 2.87.127 3.375.186" fill="#fcd414" fill-rule="evenodd"/></svg>